<?xml version="1.0" encoding="UTF-8"?>
<svg xmlns="http://www.w3.org/2000/svg" xmlns:xlink="http://www.w3.org/1999/xlink" width="928" height="588" viewBox="0 0 928 588">
  <defs>
    <filter id="shadow" x="-20%" y="-20%" width="140%" height="140%">
      <feDropShadow dx="0" dy="8" stdDeviation="10" flood-color="#020617" flood-opacity="0.46" />
    </filter>
  </defs>

  <g filter="url(#shadow)">
    <rect x="18" y="18" width="330" height="80" rx="18" fill="rgba(2,6,23,0.82)" stroke="rgba(34,211,238,0.22)" />
    <text x="36" y="48" fill="#f8fafc" font-size="18" font-weight="800">AirWatcher</text>
    <text x="36" y="70" fill="rgba(226,232,240,0.92)" font-size="14">Час: 16.04.2026, 14:14:24</text>
    <text x="36" y="90" fill="rgba(226,232,240,0.92)" font-size="14">Активних цілей: 16</text>
  </g>

  <g filter="url(#shadow)">
    <rect x="726" y="18" width="184" height="150" rx="18" fill="rgba(2,6,23,0.82)" stroke="rgba(248,250,252,0.12)" />
    <text x="742" y="44" fill="#f8fafc" font-size="16" font-weight="800">Активні цілі</text>
    <text x="742" y="78" fill="#22d3ee" font-size="30" font-weight="800">16</text>
    
        <circle cx="742" cy="112" r="5" fill="#ffb703" />
        <text x="756" y="116" fill="#f8fafc" font-size="13">БпЛА: 14</text>
      
        <circle cx="742" cy="134" r="5" fill="#c084fc" />
        <text x="756" y="138" fill="#f8fafc" font-size="13">Розвідка: 2</text>
      
  </g>

  <g>
    <path d="M 413.4 420.1 L 413.4 364.1" stroke="#ffb703" stroke-width="3.4" stroke-linecap="round" fill="none" opacity="0.98" /><polygon points="418.2,371.7 413.4,364.1 408.6,371.7" fill="#ffb703" opacity="0.98" /><circle cx="413.4" cy="420.1" r="18" fill="rgba(15,23,42,0.78)" stroke="#ffb703" stroke-width="2.8" /><circle cx="413.4" cy="420.1" r="23" fill="none" stroke="#ffb703" stroke-width="1.4" opacity="0.30" /><circle cx="413.4" cy="420.1" r="4.2" fill="#ffb703" />
        <g>
          <rect x="427.4" y="394.1" rx="8" width="106.5" height="18" fill="rgba(2,6,23,0.72)" />
          <text x="433.4" y="407.1" fill="#f8fafc" font-size="12" font-weight="700">Одеська область</text>
        </g>
      <text x="429.4" y="442.1" fill="rgba(248,250,252,0.78)" font-size="11">≈ 14 хв</text><path d="M 572.2 501.0 L 572.2 445.0" stroke="#ffb703" stroke-width="3.4" stroke-linecap="round" fill="none" opacity="0.98" /><polygon points="577.0,452.6 572.2,445.0 567.4,452.6" fill="#ffb703" opacity="0.98" /><circle cx="572.2" cy="501.0" r="18" fill="rgba(15,23,42,0.78)" stroke="#ffb703" stroke-width="2.8" /><circle cx="572.2" cy="501.0" r="23" fill="none" stroke="#ffb703" stroke-width="1.4" opacity="0.30" /><circle cx="572.2" cy="501.0" r="4.2" fill="#ffb703" />
        <g>
          <rect x="586.2" y="475.0" rx="8" width="62.0" height="18" fill="rgba(2,6,23,0.72)" />
          <text x="592.2" y="488.0" fill="#f8fafc" font-size="12" font-weight="700">АР Крим</text>
        </g>
      <text x="588.2" y="523.0" fill="rgba(248,250,252,0.78)" font-size="11">≈ 13 хв</text><path d="M 711.5 178.2 L 711.5 122.2" stroke="#ffb703" stroke-width="3.4" stroke-linecap="round" fill="none" opacity="0.98" /><polygon points="716.3,129.8 711.5,122.2 706.7,129.8" fill="#ffb703" opacity="0.98" /><circle cx="711.5" cy="178.2" r="18" fill="rgba(15,23,42,0.78)" stroke="#ffb703" stroke-width="2.8" /><circle cx="711.5" cy="178.2" r="23" fill="none" stroke="#ffb703" stroke-width="1.4" opacity="0.30" /><circle cx="711.5" cy="178.2" r="4.2" fill="#ffb703" />
        <g>
          <rect x="725.5" y="152.2" rx="8" width="127.8" height="18" fill="rgba(2,6,23,0.72)" />
          <text x="731.5" y="165.2" fill="#f8fafc" font-size="12" font-weight="700">Харківська область</text>
        </g>
      <text x="727.5" y="200.2" fill="rgba(248,250,252,0.78)" font-size="11">≈ 13 хв</text><path d="M 640.0 300.2 L 590.6 326.7" stroke="#ffb703" stroke-width="3.4" stroke-linecap="round" fill="none" opacity="0.98" /><polygon points="595.0,318.8 590.6,326.7 599.6,327.3" fill="#ffb703" opacity="0.98" /><circle cx="640.0" cy="300.2" r="18" fill="rgba(15,23,42,0.78)" stroke="#ffb703" stroke-width="2.8" /><circle cx="640.0" cy="300.2" r="23" fill="none" stroke="#ffb703" stroke-width="1.4" opacity="0.30" /><circle cx="640.0" cy="300.2" r="4.2" fill="#ffb703" />
        <g>
          <rect x="654.0" y="274.2" rx="8" width="62.0" height="18" fill="rgba(2,6,23,0.72)" />
          <text x="660.0" y="287.2" fill="#f8fafc" font-size="12" font-weight="700">Нікополь</text>
        </g>
      <text x="656.0" y="322.2" fill="rgba(248,250,252,0.78)" font-size="11">≈ 11 хв</text><path d="M 725.5 168.2 L 725.5 112.2" stroke="#c084fc" stroke-width="3.4" stroke-linecap="round" fill="none" opacity="0.98" /><polygon points="730.3,119.8 725.5,112.2 720.7,119.8" fill="#c084fc" opacity="0.98" /><circle cx="725.5" cy="168.2" r="18" fill="rgba(15,23,42,0.78)" stroke="#c084fc" stroke-width="2.8" /><circle cx="725.5" cy="168.2" r="23" fill="none" stroke="#c084fc" stroke-width="1.4" opacity="0.30" /><circle cx="725.5" cy="168.2" r="4.2" fill="#c084fc" />
        <g>
          <rect x="739.5" y="142.2" rx="8" width="71.0" height="18" fill="rgba(2,6,23,0.72)" />
          <text x="745.5" y="155.2" fill="#f8fafc" font-size="12" font-weight="700">Харківська</text>
        </g>
      <text x="741.5" y="190.2" fill="rgba(248,250,252,0.78)" font-size="11">≈ 11 хв</text><path d="M 654.1 283.1 L 604.8 309.5" stroke="#ffb703" stroke-width="3.4" stroke-linecap="round" fill="none" opacity="0.98" /><polygon points="609.2,301.7 604.8,309.5 613.8,310.2" fill="#ffb703" opacity="0.98" /><circle cx="654.1" cy="283.1" r="18" fill="rgba(15,23,42,0.78)" stroke="#ffb703" stroke-width="2.8" /><circle cx="654.1" cy="283.1" r="23" fill="none" stroke="#ffb703" stroke-width="1.4" opacity="0.30" /><circle cx="654.1" cy="283.1" r="4.2" fill="#ffb703" />
        <g>
          <rect x="668.1" y="257.1" rx="8" width="62.0" height="18" fill="rgba(2,6,23,0.72)" />
          <text x="674.1" y="270.1" fill="#f8fafc" font-size="12" font-weight="700">Нікополь</text>
        </g>
      <text x="670.1" y="305.1" fill="rgba(248,250,252,0.78)" font-size="11">≈ 10 хв</text><path d="M 668.3 267.6 L 641.8 218.3" stroke="#ffb703" stroke-width="3.4" stroke-linecap="round" fill="none" opacity="0.98" /><polygon points="649.6,222.7 641.8,218.3 641.1,227.2" fill="#ffb703" opacity="0.98" /><circle cx="668.3" cy="267.6" r="18" fill="rgba(15,23,42,0.78)" stroke="#ffb703" stroke-width="2.8" /><circle cx="668.3" cy="267.6" r="23" fill="none" stroke="#ffb703" stroke-width="1.4" opacity="0.30" /><circle cx="668.3" cy="267.6" r="4.2" fill="#ffb703" />
        <g>
          <rect x="682.3" y="241.6" rx="8" width="62.0" height="18" fill="rgba(2,6,23,0.72)" />
          <text x="688.3" y="254.6" fill="#f8fafc" font-size="12" font-weight="700">Дніпро</text>
        </g>
      <text x="684.3" y="289.6" fill="rgba(248,250,252,0.78)" font-size="11">≈ 10 хв</text><path d="M 649.1 114.2 L 649.1 58.2" stroke="#ffb703" stroke-width="3.4" stroke-linecap="round" fill="none" opacity="0.98" /><polygon points="653.9,65.8 649.1,58.2 644.2,65.8" fill="#ffb703" opacity="0.98" /><circle cx="649.1" cy="114.2" r="18" fill="rgba(15,23,42,0.78)" stroke="#ffb703" stroke-width="2.8" /><circle cx="649.1" cy="114.2" r="23" fill="none" stroke="#ffb703" stroke-width="1.4" opacity="0.30" /><circle cx="649.1" cy="114.2" r="4.2" fill="#ffb703" />
        <g>
          <rect x="663.1" y="88.2" rx="8" width="106.5" height="18" fill="rgba(2,6,23,0.72)" />
          <text x="669.1" y="101.2" fill="#f8fafc" font-size="12" font-weight="700">Сумська область</text>
        </g>
      <text x="665.1" y="136.2" fill="rgba(248,250,252,0.78)" font-size="11">≈ 8 хв</text><path d="M 484.2 74.0 L 484.2 18.0" stroke="#ffb703" stroke-width="3.4" stroke-linecap="round" fill="none" opacity="0.98" /><polygon points="489.0,25.6 484.2,18.0 479.4,25.6" fill="#ffb703" opacity="0.98" /><circle cx="484.2" cy="74.0" r="18" fill="rgba(15,23,42,0.78)" stroke="#ffb703" stroke-width="2.8" /><circle cx="484.2" cy="74.0" r="23" fill="none" stroke="#ffb703" stroke-width="1.4" opacity="0.30" /><circle cx="484.2" cy="74.0" r="4.2" fill="#ffb703" />
        <g>
          <rect x="498.2" y="48.0" rx="8" width="142.0" height="18" fill="rgba(2,6,23,0.72)" />
          <text x="504.2" y="61.0" fill="#f8fafc" font-size="12" font-weight="700">Чернігівська область</text>
        </g>
      <text x="500.2" y="96.0" fill="rgba(248,250,252,0.78)" font-size="11">≈ 8 хв</text><path d="M 434.9 157.5 L 442.4 102.0" stroke="#ffb703" stroke-width="3.4" stroke-linecap="round" fill="none" opacity="0.98" /><polygon points="446.1,110.1 442.4,102.0 436.6,108.8" fill="#ffb703" opacity="0.98" /><circle cx="434.9" cy="157.5" r="18" fill="rgba(15,23,42,0.78)" stroke="#ffb703" stroke-width="2.8" /><circle cx="434.9" cy="157.5" r="23" fill="none" stroke="#ffb703" stroke-width="1.4" opacity="0.30" /><circle cx="434.9" cy="157.5" r="4.2" fill="#ffb703" />
        <g>
          <rect x="448.9" y="131.5" rx="8" width="62.0" height="18" fill="rgba(2,6,23,0.72)" />
          <text x="454.9" y="144.5" fill="#f8fafc" font-size="12" font-weight="700">Київ</text>
        </g>
      <text x="450.9" y="179.5" fill="rgba(248,250,252,0.78)" font-size="11">≈ 4 хв</text><path d="M 682.3 262.3 L 632.9 288.8" stroke="#ffb703" stroke-width="3.4" stroke-linecap="round" fill="none" opacity="0.98" /><polygon points="637.4,280.9 632.9,288.8 641.9,289.4" fill="#ffb703" opacity="0.98" /><circle cx="682.3" cy="262.3" r="18" fill="rgba(15,23,42,0.78)" stroke="#ffb703" stroke-width="2.8" /><circle cx="682.3" cy="262.3" r="23" fill="none" stroke="#ffb703" stroke-width="1.4" opacity="0.30" /><circle cx="682.3" cy="262.3" r="4.2" fill="#ffb703" />
        <g>
          <rect x="696.3" y="236.3" rx="8" width="62.0" height="18" fill="rgba(2,6,23,0.72)" />
          <text x="702.3" y="249.3" fill="#f8fafc" font-size="12" font-weight="700">Нікополь</text>
        </g>
      <text x="698.3" y="284.3" fill="rgba(248,250,252,0.78)" font-size="11">≈ 3 хв</text><path d="M 696.5 247.9 L 696.5 191.9" stroke="#ffb703" stroke-width="3.4" stroke-linecap="round" fill="none" opacity="0.98" /><polygon points="701.3,199.5 696.5,191.9 691.6,199.5" fill="#ffb703" opacity="0.98" /><circle cx="696.5" cy="247.9" r="18" fill="rgba(15,23,42,0.78)" stroke="#ffb703" stroke-width="2.8" /><circle cx="696.5" cy="247.9" r="23" fill="none" stroke="#ffb703" stroke-width="1.4" opacity="0.30" /><circle cx="696.5" cy="247.9" r="4.2" fill="#ffb703" />
        <g>
          <rect x="710.5" y="221.9" rx="8" width="170.4" height="18" fill="rgba(2,6,23,0.72)" />
          <text x="716.5" y="234.9" fill="#f8fafc" font-size="12" font-weight="700">Дніпропетровська область</text>
        </g>
      <text x="712.5" y="269.9" fill="rgba(248,250,252,0.78)" font-size="11">≈ 2 хв</text><path d="M 710.6 236.2 L 654.6 236.2" stroke="#ffb703" stroke-width="3.4" stroke-linecap="round" fill="none" opacity="0.98" /><polygon points="662.2,231.4 654.6,236.2 662.2,241.0" fill="#ffb703" opacity="0.98" /><circle cx="710.6" cy="236.2" r="18" fill="rgba(15,23,42,0.78)" stroke="#ffb703" stroke-width="2.8" /><circle cx="710.6" cy="236.2" r="23" fill="none" stroke="#ffb703" stroke-width="1.4" opacity="0.30" /><circle cx="710.6" cy="236.2" r="4.2" fill="#ffb703" />
        <g>
          <rect x="724.6" y="210.2" rx="8" width="62.0" height="18" fill="rgba(2,6,23,0.72)" />
          <text x="730.6" y="223.2" fill="#f8fafc" font-size="12" font-weight="700">Шостка</text>
        </g>
      <text x="726.6" y="258.2" fill="rgba(248,250,252,0.78)" font-size="11">≈ 2 хв</text><path d="M 506.9 409.6 L 450.9 409.6" stroke="#ffb703" stroke-width="3.4" stroke-linecap="round" fill="none" opacity="0.98" /><polygon points="458.5,404.7 450.9,409.6 458.5,414.4" fill="#ffb703" opacity="0.98" /><circle cx="506.9" cy="409.6" r="18" fill="rgba(15,23,42,0.78)" stroke="#ffb703" stroke-width="2.8" /><circle cx="506.9" cy="409.6" r="23" fill="none" stroke="#ffb703" stroke-width="1.4" opacity="0.30" /><circle cx="506.9" cy="409.6" r="4.2" fill="#ffb703" />
        <g>
          <rect x="520.9" y="383.6" rx="8" width="127.8" height="18" fill="rgba(2,6,23,0.72)" />
          <text x="526.9" y="396.6" fill="#f8fafc" font-size="12" font-weight="700">Херсонська область</text>
        </g>
      <text x="522.9" y="431.6" fill="rgba(248,250,252,0.78)" font-size="11">≈ 1 хв</text><path d="M 739.5 158.2 L 739.5 102.2" stroke="#c084fc" stroke-width="3.4" stroke-linecap="round" fill="none" opacity="0.98" /><polygon points="744.3,109.8 739.5,102.2 734.7,109.8" fill="#c084fc" opacity="0.98" /><circle cx="739.5" cy="158.2" r="18" fill="rgba(15,23,42,0.78)" stroke="#c084fc" stroke-width="2.8" /><circle cx="739.5" cy="158.2" r="23" fill="none" stroke="#c084fc" stroke-width="1.4" opacity="0.30" /><circle cx="739.5" cy="158.2" r="4.2" fill="#c084fc" />
        <g>
          <rect x="753.5" y="132.2" rx="8" width="71.0" height="18" fill="rgba(2,6,23,0.72)" />
          <text x="759.5" y="145.2" fill="#f8fafc" font-size="12" font-weight="700">Харківська</text>
        </g>
      <text x="755.5" y="180.2" fill="rgba(248,250,252,0.78)" font-size="11">≈ 1 хв</text><path d="M 664.9 89.1 L 623.4 51.5" stroke="#ffb703" stroke-width="3.4" stroke-linecap="round" fill="none" opacity="0.98" /><polygon points="632.3,53.0 623.4,51.5 625.8,60.2" fill="#ffb703" opacity="0.98" /><circle cx="664.9" cy="89.1" r="18" fill="rgba(15,23,42,0.78)" stroke="#ffb703" stroke-width="2.8" /><circle cx="664.9" cy="89.1" r="23" fill="none" stroke="#ffb703" stroke-width="1.4" opacity="0.30" /><circle cx="664.9" cy="89.1" r="4.2" fill="#ffb703" />
        <g>
          <rect x="678.9" y="63.1" rx="8" width="62.0" height="18" fill="rgba(2,6,23,0.72)" />
          <text x="684.9" y="76.1" fill="#f8fafc" font-size="12" font-weight="700">Шостка</text>
        </g>
      <text x="680.9" y="111.1" fill="rgba(248,250,252,0.78)" font-size="11">≈ 0 хв</text>
  </g>

  <g>
    <text x="464.0" y="570.0" text-anchor="middle" fill="rgba(15,23,42,0.18)" font-size="28" font-weight="800" letter-spacing="1.2">t.me/airwatcher</text>
    <text x="910.0" y="28" text-anchor="end" fill="rgba(15,23,42,0.45)" font-size="12" font-weight="700" letter-spacing="0.8">t.me/airwatcher</text>
  </g>
</svg>